<svg width="41" height="44" viewBox="0 0 41 44" fill="none" xmlns="http://www.w3.org/2000/svg">
<g id="Social Icons" clip-path="url(#clip0_115_555)">
<path id="Vector" d="M37.9734 0H3.0266C2.22389 0 1.45407 0.342205 0.88647 0.951334C0.318873 1.56046 0 2.38662 0 3.24806V40.7519C0 41.6134 0.318873 42.4395 0.88647 43.0487C1.45407 43.6578 2.22389 44 3.0266 44H37.9734C38.7761 44 39.5459 43.6578 40.1135 43.0487C40.6811 42.4395 41 41.6134 41 40.7519V3.24806C41 2.38662 40.6811 1.56046 40.1135 0.951334C39.5459 0.342205 38.7761 0 37.9734 0ZM12.2203 37.4825H6.05604V16.4694H12.2203V37.4825ZM9.13389 13.5575C8.43466 13.5533 7.75227 13.3269 7.17284 12.9068C6.5934 12.4868 6.14289 11.892 5.87817 11.1974C5.61344 10.5029 5.54636 9.73975 5.68539 9.00433C5.82442 8.26892 6.16333 7.59417 6.65935 7.06527C7.15537 6.53636 7.78627 6.17699 8.47242 6.03251C9.15858 5.88803 9.86924 5.96492 10.5147 6.25347C11.1602 6.54203 11.7115 7.02931 12.0992 7.65382C12.4869 8.27834 12.6935 9.0121 12.6929 9.7625C12.6995 10.2649 12.6118 10.7636 12.435 11.2288C12.2582 11.694 11.9959 12.1163 11.6638 12.4705C11.3316 12.8246 10.9365 13.1034 10.5019 13.2901C10.0672 13.4769 9.60198 13.5678 9.13389 13.5575ZM34.9411 37.5008H28.7797V26.0211C28.7797 22.6356 27.4387 21.5906 25.7076 21.5906C23.8797 21.5906 22.0859 23.0694 22.0859 26.1067V37.5008H15.9217V16.4847H21.8496V19.3967H21.9293C22.5244 18.1042 24.6085 15.895 27.7889 15.895C31.2283 15.895 34.944 18.0858 34.944 24.5025L34.9411 37.5008Z" fill="#0A66C2"/>
</g>
<defs>
<clipPath id="clip0_115_555">
<rect width="41" height="44" fill="white"/>
</clipPath>
</defs>
</svg>
