<svg width="41" height="44" viewBox="0 0 41 44" fill="none" xmlns="http://www.w3.org/2000/svg">
<g id="Social Icons" clip-path="url(#clip0_115_576)">
<path id="Vector" fill-rule="evenodd" clip-rule="evenodd" d="M20.517 0C9.17161 0 0 9.91527 0 22.1818C0 31.9871 5.87657 40.2871 14.0289 43.2247C15.0482 43.4455 15.4215 42.7474 15.4215 42.1602C15.4215 41.6459 15.3879 39.8833 15.3879 38.0467C9.68061 39.369 8.49211 35.4025 8.49211 35.4025C7.57491 32.8317 6.2159 32.171 6.2159 32.171C4.3479 30.8121 6.35197 30.8121 6.35197 30.8121C8.42408 30.9591 9.51136 33.0891 9.51136 33.0891C11.3454 36.4674 14.3006 35.5129 15.4896 34.9252C15.6592 33.4929 16.2031 32.5013 16.7805 31.9506C12.2285 31.4364 7.43926 29.5268 7.43926 21.0064C7.43926 18.5826 8.25399 16.5995 9.54496 15.0572C9.34128 14.5065 8.62776 12.2291 9.74906 9.18109C9.74906 9.18109 11.4814 8.59338 15.3875 11.458C17.0598 10.9724 18.7845 10.7254 20.517 10.7234C22.2493 10.7234 24.0153 10.9807 25.646 11.458C29.5525 8.59338 31.2849 9.18109 31.2849 9.18109C32.4062 12.2291 31.6922 14.5065 31.4885 15.0572C32.8135 16.5995 33.5947 18.5826 33.5947 21.0064C33.5947 29.5268 28.8054 31.3994 24.2194 31.9506C24.9669 32.6483 25.612 33.9702 25.612 36.0636C25.612 39.0382 25.5784 41.4255 25.5784 42.1597C25.5784 42.7474 25.9521 43.4455 26.971 43.2252C35.1233 40.2866 40.9999 31.9871 40.9999 22.1818C41.0335 9.91527 31.8283 0 20.517 0Z" fill="#24292F"/>
</g>
<defs>
<clipPath id="clip0_115_576">
<rect width="41" height="44" fill="white"/>
</clipPath>
</defs>
</svg>
